<?xml version="1.0" standalone="no"?>
<!DOCTYPE svg PUBLIC "-//W3C//DTD SVG 20010904//EN"
 "http://www.w3.org/TR/2001/REC-SVG-20010904/DTD/svg10.dtd">
<svg version="1.0" xmlns="http://www.w3.org/2000/svg"
 width="267.000000pt" height="287.000000pt" viewBox="0 0 267.000000 287.000000"
 preserveAspectRatio="xMidYMid meet">

<g transform="translate(0.000000,287.000000) scale(0.100000,-0.100000)"
fill="#000000" stroke="none">
<path d="M1825 2503 c-276 -159 -833 -489 -847 -501 -17 -14 -18 -45 -18 -377
0 -332 1 -363 18 -377 9 -9 81 -54 160 -101 l143 -86 302 170 302 170 3 -143
3 -143 -30 -23 c-16 -13 -137 -87 -268 -165 l-238 -143 -3 -193 c-2 -161 0
-192 11 -188 8 3 99 54 203 114 104 60 298 172 432 248 l242 138 -2 374 -3
374 -153 90 c-103 60 -160 88 -172 84 -16 -5 -469 -266 -567 -326 l-32 -20 -3
159 -3 160 199 113 c109 63 224 128 255 144 31 17 133 76 226 132 94 55 189
111 212 124 24 13 43 29 43 36 0 7 -15 23 -32 36 -60 43 -273 167 -288 167 -8
0 -51 -21 -95 -47z m162 -29 c-3 -3 -12 -4 -19 -1 -8 3 -5 6 6 6 11 1 17 -2
13 -5z m-610 -1876 c-3 -8 -6 -5 -6 6 -1 11 2 17 5 13 3 -3 4 -12 1 -19z"/>
<path d="M503 2093 l-163 -95 0 -548 0 -549 43 -29 c23 -16 56 -36 72 -44 103
-52 142 -73 155 -84 8 -7 31 -21 50 -32 19 -11 98 -57 175 -102 267 -158 310
-182 349 -196 21 -8 40 -14 42 -14 2 0 4 85 4 189 l0 189 -47 29 c-27 17 -148
87 -270 158 l-223 128 0 548 c0 433 -3 549 -12 548 -7 0 -86 -43 -175 -96z
m144 -1329 c-3 -3 -12 -4 -19 -1 -8 3 -5 6 6 6 11 1 17 -2 13 -5z"/>
</g>
</svg>
