<svg xmlns="http://www.w3.org/2000/svg" xmlns:xlink="http://www.w3.org/1999/xlink" version="1.1" width="1000" height="1000" viewBox="0 0 1000 1000" xml:space="preserve">
<desc>Created with Fabric.js 3.5.0</desc>
<defs>
</defs>
<rect x="0" y="0" width="100%" height="100%" fill="#ffffff"/>
<g transform="matrix(1 0 0 1 441.3844 253.7486)" id="60290">
<path style="stroke: none; stroke-width: 1; stroke-dasharray: none; stroke-linecap: butt; stroke-dashoffset: 0; stroke-linejoin: miter; stroke-miterlimit: 4; is-custom-font: none; font-file-url: none; fill: rgb(63,61,86); fill-rule: nonzero; opacity: 1;" transform=" translate(-682.7772, -338.4095)" d="M 906.27676 433.9051 a 0.9803 0.9803 0 0 1 -0.24024 0.68006 a 0.99982 0.99982 0 0 1 -1.40967 0.11 l -3.35009 -2.89 l -56.96 -49.07 L 684.557 245.08516 a 5.01961 5.01961 0 0 0 -6.54 0.01 l -215.14014 186.91 l -1.93994 1.68 a 0.96621 0.96621 0 0 1 -0.25 0.16 a 1 1 0 0 1 -0.51025 0.08 a 1.02484 1.02484 0 0 1 -0.6499 -0.33 a 0.99744 0.99744 0 0 1 0.08984 -1.41 l 0.27 -0.24 l 216.82031 -188.36 a 7.0466 7.0466 0 0 1 9.15967 -0.02 l 159.81006 137.69 l 60.25 51.92 A 1.01574 1.01574 0 0 1 906.27676 433.9051 Z" stroke-linecap="round"/>
</g>
<g transform="matrix(1 0 0 1 375.4778 276.9953)" id="738746">
<path style="stroke: none; stroke-width: 1; stroke-dasharray: none; stroke-linecap: butt; stroke-dashoffset: 0; stroke-linejoin: miter; stroke-miterlimit: 4; is-custom-font: none; font-file-url: none; fill: rgb(230,230,230); fill-rule: nonzero; opacity: 1;" transform=" translate(-616.8706, -361.6562)" d="M 784.807 463.43513 l -2.63037 -7.24 l -9.06006 -25 l -19.52 -53.83 l -21.81982 -60.17 l -39.3501 -108.53 a 8.51614 8.51614 0 0 0 -10.89014 -5.09 l -227.50976 82.49 a 8.51217 8.51217 0 0 0 -5.08985 10.89 l 55.79 153.86 l 0.94971 2.63 l 58.56006 26.54 l 16.46 7.46 l 2.66992 1.21 l 69.69043 31.59 l 2.69971 -0.98 l 45.71 -16.57 l 68.95019 -25 l 9.29 -3.37 A 8.51789 8.51789 0 0 0 784.807 463.43513 Z" stroke-linecap="round"/>
</g>
<g transform="matrix(1 0 0 1 369.5082 279.0813)" id="93946">
<path style="stroke: none; stroke-width: 1; stroke-dasharray: none; stroke-linecap: butt; stroke-dashoffset: 0; stroke-linejoin: miter; stroke-miterlimit: 4; is-custom-font: none; font-file-url: none; fill: rgb(255,255,255); fill-rule: nonzero; opacity: 1;" transform=" translate(-610.9009, -363.7423)" d="M 689.40664 335.27516 a 12.52171 12.52171 0 0 0 -16.02 -7.49005 l -90.02 32.65 l -43.46973 15.76 a 12.49841 12.49841 0 1 0 8.52 23.5 l 34.94971 -12.67 l 98.55029 -35.73 A 12.52158 12.52158 0 0 0 689.40664 335.27516 Z" stroke-linecap="round"/>
</g>
<g transform="matrix(1 0 0 1 385.366 322.7988)" id="538049">
<path style="stroke: none; stroke-width: 1; stroke-dasharray: none; stroke-linecap: butt; stroke-dashoffset: 0; stroke-linejoin: miter; stroke-miterlimit: 4; is-custom-font: none; font-file-url: none; fill: rgb(255,255,255); fill-rule: nonzero; opacity: 1;" transform=" translate(-626.7587, -407.4597)" d="M 705.25674 378.99513 a 12.52187 12.52187 0 0 0 -16.02 -7.49 l -15.25 5.53 l -90.62012 32.86 l -27.61963 10.01 a 12.50311 12.50311 0 0 0 8.52 23.51 l 19.09961 -6.93 l 114.40039 -41.48 c 0.25977 -0.09 0.50977 -0.2 0.75977 -0.31 A 12.49821 12.49821 0 0 0 705.25674 378.99513 Z" stroke-linecap="round"/>
</g>
<g transform="matrix(1 0 0 1 401.3847 366.53)" id="618324">
<path style="stroke: none; stroke-width: 1; stroke-dasharray: none; stroke-linecap: butt; stroke-dashoffset: 0; stroke-linejoin: miter; stroke-miterlimit: 4; is-custom-font: none; font-file-url: none; fill: rgb(255,255,255); fill-rule: nonzero; opacity: 1;" transform=" translate(-642.7775, -451.191)" d="M 721.27676 423.17512 a 12.5107 12.5107 0 0 0 -16.00977 -7.49 l -42.77 15.51 l -33.11035 12.01 l -46.02 16.68 l -11.59961 4.21 a 12.52729 12.52729 0 0 0 -8.13037 13.42 a 12.3647 12.3647 0 0 0 0.6001 2.47 l 16.46 7.46 l 2.66992 -0.97 h 0.02 l 83.51025 -30.28 l 46.88965 -17 a 12.51132 12.51132 0 0 0 7.49024 -16.02 Z" stroke-linecap="round"/>
</g>
<g transform="matrix(1 0 0 1 348.5502 221.2688)" id="573092">
<path style="stroke: none; stroke-width: 1; stroke-dasharray: none; stroke-linecap: butt; stroke-dashoffset: 0; stroke-linejoin: miter; stroke-miterlimit: 4; is-custom-font: none; font-file-url: none; fill: rgb(255,255,255); fill-rule: nonzero; opacity: 1;" transform=" translate(-589.943, -305.9297)" d="M 627.54678 292.29512 a 12.52192 12.52192 0 0 0 -16.02 -7.49 l -51.7002 18.74 a 12.50311 12.50311 0 0 0 8.52 23.51 l 16.36035 -5.93 l 10.82959 -3.93 l 24.52051 -8.89 A 12.51107 12.51107 0 0 0 627.54678 292.29512 Z" stroke-linecap="round"/>
</g>
<g transform="matrix(1 0 0 1 471.4738 340.1105)" id="101536">
<path style="stroke: none; stroke-width: 1; stroke-dasharray: none; stroke-linecap: butt; stroke-dashoffset: 0; stroke-linejoin: miter; stroke-miterlimit: 4; is-custom-font: none; font-file-url: none; fill: rgb(108,99,255); fill-rule: nonzero; opacity: 1;" transform=" translate(-712.8666, -424.7714)" d="M 833.8666 317.19514 h -242 a 8.502 8.502 0 0 0 -7.15967 3.93 a 8.4141 8.4141 0 0 0 -1.34033 4.57 v 162.96 l 69.69043 31.59 l 9.81982 4.45 l 15.50977 7.03 a 7.02024 7.02024 0 0 0 5.78027 0 l 15.50977 -7.03 l 48.54 -22 l 45.24023 -20.51 l 48.90967 -22.16 v -134.33 A 8.50539 8.50539 0 0 0 833.8666 317.19514 Z" stroke-linecap="round"/>
</g>
<g transform="matrix(1 0 0 1 471.4734 359.0342)" id="907937">
<path style="stroke: none; stroke-width: 1; stroke-dasharray: none; stroke-linecap: butt; stroke-dashoffset: 0; stroke-linejoin: miter; stroke-miterlimit: 4; is-custom-font: none; font-file-url: none; fill: rgb(255,255,255); fill-rule: nonzero; opacity: 1;" transform=" translate(-712.8662, -443.6951)" d="M 783.8666 431.19514 h -142 a 12.4967 12.4967 0 0 0 -12.48 12.01 a 4.01078 4.01078 0 0 0 -0.02 0.49 a 12.51761 12.51761 0 0 0 12.5 12.5 h 142 a 12.5 12.5 0 0 0 0 -25 Z" stroke-linecap="round"/>
</g>
<g transform="matrix(1 0 0 1 470.0191 405.5342)" id="771037">
<path style="stroke: none; stroke-width: 1; stroke-dasharray: none; stroke-linecap: butt; stroke-dashoffset: 0; stroke-linejoin: miter; stroke-miterlimit: 4; is-custom-font: none; font-file-url: none; fill: rgb(255,255,255); fill-rule: nonzero; opacity: 1;" transform=" translate(-711.4118, -490.1951)" d="M 791.95693 480.67512 a 12.41094 12.41094 0 0 0 -8.09033 -2.98 h -142 a 12.5 12.5 0 0 0 0 25 H 748.2167 l 45.24023 -20.51 A 12.58317 12.58317 0 0 0 791.95693 480.67512 Z" stroke-linecap="round"/>
</g>
<g transform="matrix(1 0 0 1 439.884 443.8605)" id="885654">
<path style="stroke: none; stroke-width: 1; stroke-dasharray: none; stroke-linecap: butt; stroke-dashoffset: 0; stroke-linejoin: miter; stroke-miterlimit: 4; is-custom-font: none; font-file-url: none; fill: rgb(255,255,255); fill-rule: nonzero; opacity: 1;" transform=" translate(-681.2768, -528.5214)" d="M 662.87685 524.69514 l 15.50977 7.03 a 7.02024 7.02024 0 0 0 5.78027 0 l 15.50977 -7.03 Z" stroke-linecap="round"/>
</g>
<g transform="matrix(1 0 0 1 471.4738 297.5342)" id="609805">
<path style="stroke: none; stroke-width: 1; stroke-dasharray: none; stroke-linecap: butt; stroke-dashoffset: 0; stroke-linejoin: miter; stroke-miterlimit: 4; is-custom-font: none; font-file-url: none; fill: rgb(255,255,255); fill-rule: nonzero; opacity: 1;" transform=" translate(-712.8666, -382.1951)" d="M 752.10683 377.9051 a 12.506 12.506 0 0 0 -11.74023 -8.21 h -55 a 12.50937 12.50937 0 0 0 -11.37988 7.34 a 12.35787 12.35787 0 0 0 -1.12012 5.16 a 12.51761 12.51761 0 0 0 12.5 12.5 h 55 a 12.49876 12.49876 0 0 0 11.74023 -16.79 Z" stroke-linecap="round"/>
</g>
<g transform="matrix(1 0 0 1 439.8841 479.7093)" id="842309">
<path style="stroke: none; stroke-width: 1; stroke-dasharray: none; stroke-linecap: butt; stroke-dashoffset: 0; stroke-linejoin: miter; stroke-miterlimit: 4; is-custom-font: none; font-file-url: none; fill: rgb(63,61,86); fill-rule: nonzero; opacity: 1;" transform=" translate(-681.2768, -564.3701)" d="M 743.3666 502.69514 l -48.54 22 l -11.48975 5.21 a 5.0163 5.0163 0 0 1 -4.12011 0 l -11.48975 -5.21 h -4.8501 l 15.50977 7.03 a 7.02024 7.02024 0 0 0 5.78027 0 l 15.50977 -7.03 l 48.54 -22 Z m 0 0 l -48.54 22 l -11.48975 5.21 a 5.0163 5.0163 0 0 1 -4.12011 0 l -11.48975 -5.21 h -4.8501 l 15.50977 7.03 a 7.02024 7.02024 0 0 0 5.78027 0 l 15.50977 -7.03 l 48.54 -22 Z m 0 0 l -48.54 22 l -11.48975 5.21 a 5.0163 5.0163 0 0 1 -4.12011 0 l -11.48975 -5.21 h -4.8501 l 15.50977 7.03 a 7.02024 7.02024 0 0 0 5.78027 0 l 15.50977 -7.03 l 48.54 -22 Z m 162.91016 -68.79 a 7.63845 7.63845 0 0 0 -1.21 -0.98 a 6.96066 6.96066 0 0 0 -6.68018 -0.49 l -106.42969 48.24 l -48.59033 22.02 l -48.54 22 l -11.48975 5.21 a 5.0163 5.0163 0 0 1 -4.12011 0 l -11.48975 -5.21 l -11.97021 -5.43 l -72.37012 -32.79 l -0.02 -0.00995 l -19.73 -8.95 l -58.90967 -26.7 l -40.56006 -18.38 a 6.10738 6.10738 0 0 0 -1.29 -0.43 a 6.70854 6.70854 0 0 0 -2.99023 -0.06 a 7.017 7.017 0 0 0 -5.60986 6.86 v 251.13 a 7.00778 7.00778 0 0 0 7 7 h 440 a 7.00778 7.00778 0 0 0 7 -7 v -251.13 A 6.97174 6.97174 0 0 0 906.27676 433.9051 Z m 0 256.03 a 5.002 5.002 0 0 1 -5 5 h -440 a 5.002 5.002 0 0 1 -5 -5 v -251.13 a 5.00087 5.00087 0 0 1 2.29 -4.2 a 5.1681 5.1681 0 0 1 1.60986 -0.68 a 4.51064 4.51064 0 0 1 0.51025 -0.08 a 3.89766 3.89766 0 0 1 0.58985 -0.04 a 4.96993 4.96993 0 0 1 2.06 0.45 l 42.33985 19.19 l 58.56006 26.54 l 16.46 7.46 l 2.66992 1.21 l 69.69043 31.59 l 9.81982 4.45 l 15.50977 7.03 a 7.02024 7.02024 0 0 0 5.78027 0 l 15.50977 -7.03 l 48.54 -22 l 45.24023 -20.51 l 105.75977 -47.93 a 5.00053 5.00053 0 0 1 4.77 0.35 a 1.86108 1.86108 0 0 1 0.23 0.16 a 1.2473 1.2473 0 0 1 0.22021 0.18 a 4.95928 4.95928 0 0 1 1.83985 3.86 Z m -162.91016 -187.24 l -48.54 22 l -11.48975 5.21 a 5.0163 5.0163 0 0 1 -4.12011 0 l -11.48975 -5.21 h -4.8501 l 15.50977 7.03 a 7.02024 7.02024 0 0 0 5.78027 0 l 15.50977 -7.03 l 48.54 -22 Z m 0 0 l -48.54 22 l -11.48975 5.21 a 5.0163 5.0163 0 0 1 -4.12011 0 l -11.48975 -5.21 h -4.8501 l 15.50977 7.03 a 7.02024 7.02024 0 0 0 5.78027 0 l 15.50977 -7.03 l 48.54 -22 Z m -162.66992 -15.25 l 2.66992 1.21 v -2.18 Z m 162.66992 15.25 l -48.54 22 l -11.48975 5.21 a 5.0163 5.0163 0 0 1 -4.12011 0 l -11.48975 -5.21 h -4.8501 l 15.50977 7.03 a 7.02024 7.02024 0 0 0 5.78027 0 l 15.50977 -7.03 l 48.54 -22 Z" stroke-linecap="round"/>
</g>
<g transform="matrix(1 0 0 1 569.7444 854.2559)" id="671514">
<path style="stroke: none; stroke-width: 1; stroke-dasharray: none; stroke-linecap: butt; stroke-dashoffset: 0; stroke-linejoin: miter; stroke-miterlimit: 4; is-custom-font: none; font-file-url: none; fill: rgb(255,255,255); fill-rule: nonzero; opacity: 1;" transform=" translate(-665.6372, -371.711)" d="M 665.6372 344.37331 h 0 a 23.25742 23.25742 0 0 1 23.25742 23.25742 v 31.418 a 0 0 0 0 1 0 0 H 642.37979 a 0 0 0 0 1 0 0 v -31.418 A 23.25742 23.25742 0 0 1 665.6372 344.37331 Z" stroke-linecap="round"/>
</g>
<g transform="matrix(1 0 0 1 339.6182 854.2559)" id="857915">
<path style="stroke: none; stroke-width: 1; stroke-dasharray: none; stroke-linecap: butt; stroke-dashoffset: 0; stroke-linejoin: miter; stroke-miterlimit: 4; is-custom-font: none; font-file-url: none; fill: rgb(255,255,255); fill-rule: nonzero; opacity: 1;" transform=" translate(-435.511, -371.711)" d="M 435.511 344.37331 h 0 a 23.25742 23.25742 0 0 1 23.25742 23.25742 v 31.418 a 0 0 0 0 1 0 0 H 412.25355 a 0 0 0 0 1 0 0 v -31.418 A 23.25742 23.25742 0 0 1 435.511 344.37331 Z" stroke-linecap="round"/>
</g>
<g transform="matrix(1 0 0 1 711.1372 1017.8866)" id="270393">
<rect style="stroke: none; stroke-width: 1; stroke-dasharray: none; stroke-linecap: butt; stroke-dashoffset: 0; stroke-linejoin: miter; stroke-miterlimit: 4; is-custom-font: none; font-file-url: none; fill: rgb(202,202,202); fill-rule: nonzero; opacity: 1;" x="-29.78585" y="-4.8963" rx="0" ry="0" width="59.5717" height="9.7926"/>
</g>
<g transform="matrix(1 0 0 1 480.195 1017.8866)" id="474712">
<rect style="stroke: none; stroke-width: 1; stroke-dasharray: none; stroke-linecap: butt; stroke-dashoffset: 0; stroke-linejoin: miter; stroke-miterlimit: 4; is-custom-font: none; font-file-url: none; fill: rgb(202,202,202); fill-rule: nonzero; opacity: 1;" x="-29.78585" y="-4.8963" rx="0" ry="0" width="59.5717" height="9.7926"/>
</g>
<g transform="matrix(1.1773 0 0 1.1773 541.5784 525.8577)" id="554922">
<path style="stroke: none; stroke-width: 1; stroke-dasharray: none; stroke-linecap: butt; stroke-dashoffset: 0; stroke-linejoin: miter; stroke-miterlimit: 4; is-custom-font: none; font-file-url: none; fill: rgb(63,61,86); fill-rule: nonzero; opacity: 1;" transform=" translate(-778.7354, -441.9224)" d="M 662.51638 458.82007 V 458.83 c 0 0.01 0.01 0.01 0.02 0.01 Z M 637.60647 382.67 c -0.04 0.25 -0.09009 0.5 -0.13013 0.75 c 0.04 -0.25 0.09009 -0.5 0.14014 -0.75 Z m -1.24 9.23 c -0.03 0.38 -0.06006 0.76 -0.08008 1.14 q 0.03 -0.57 0.09009 -1.14 a 1.47492 1.47492 0 0 1 0.01 -0.21 C 636.37649 391.76 636.37649 391.83 636.36648 391.9 Z m 26.1499 66.93 c 0 0.01 0.01 0.01 0.02 0.01 l -0.02 -0.0199 Z m -24.90991 -76.16 c -0.04 0.25 -0.09009 0.5 -0.13013 0.75 c 0.04 -0.25 0.09009 -0.5 0.14014 -0.75 Z m -1.32007 10.37 q 0.03 -0.57 0.09009 -1.14 a 1.47492 1.47492 0 0 1 0.01 -0.21 c -0.01 0.07 -0.01 0.14 -0.02 0.21 C 636.33645 392.28 636.30642 392.66 636.2864 393.04 Z M 945.22634 577 a 6.77183 6.77183 0 0 0 -0.61987 -0.58008 l -0.01 -0.01 l -49.52 -41.78991 l -1.28 -1.08 l -4.86988 -4.11011 l -1.22021 -1.03 L 880.76638 522.54 l -1.8999 -1.6001 L 874.93654 517.62 l -2.01 -1.70008 l -18.96 -15.99 L 843.09646 490.76 l -1.46 -1.23 l -32.03 -27.03 c 0.49 -0.7 0.97 -1.4 1.43994 -2.11 c 0.38012 -0.59 0.76 -1.17 1.14013 -1.76 c 0.0398 -0.06994 0.08985 -0.14 0.12989 -0.21008 c 0.22 -0.34 0.42993 -0.68994 0.63989 -1.02991 q 0.18018 -0.27007 0.33008 -0.54 c 0.16015 -0.25 0.32007 -0.51 0.47021 -0.77 c 0.14991 -0.25 0.29981 -0.50989 0.44971 -0.7699 c 0.7002 -1.17005 1.36011 -2.3501 2 -3.54 l 0.06006 -0.11011 l 0.51 -0.97 c 0.32007 -0.59 0.63013 -1.18994 0.92993 -1.79 a 0.07467 0.07467 0 0 0 0.02 -0.04992 c 0.31006 -0.61 0.62012 -1.23 0.91016 -1.85 c 0.01 -0.01 0.01 -0.03 0.02 -0.04 c 0.36987 -0.77 0.73 -1.54 1.08007 -2.33 c 0.08985 -0.18 0.16993 -0.36 0.25 -0.54 c 0.32984 -0.76 0.65992 -1.52991 0.98 -2.29993 c 0.32984 -0.79 0.64991 -1.59009 0.96 -2.39014 c 0.31006 -0.79992 0.61988 -1.60986 0.90992 -2.40991 q 0.82507 -2.295 1.55 -4.6 a 2.58139 2.58139 0 0 1 0.08007 -0.26 c 0.25 -0.81994 0.48975 -1.63 0.73 -2.45007 c 0.14991 -0.53 0.29 -1.04993 0.42994 -1.57995 c 0.09985 -0.38 0.2 -0.76 0.29 -1.14 c 0.05 -0.1499 0.07983 -0.29 0.11987 -0.43994 c 0.13013 -0.51 0.25 -1.01 0.37012 -1.52 c 0.02 -0.08008 0.04 -0.17 0.06005 -0.25 c 0.23975 -1.03 0.47 -2.07007 0.67994 -3.1001 c 0.1101 -0.5199 0.21 -1.03991 0.30981 -1.55993 c 0.19019 -1.03992 0.38013 -2.08 0.54 -3.12 c 0.08008 -0.49 0.15015 -0.98 0.22021 -1.47 c 0.06983 -0.43994 0.12989 -0.88 0.18995 -1.31006 c 0.08007 -0.55994 0.1499 -1.11 0.21 -1.66992 c 0.26 -2.21 0.44995 -4.41 0.57006 -6.62012 c 0.0398 -0.65991 0.07007 -1.31994 0.09986 -1.99 c 0.03 -0.7699 0.05005 -1.52991 0.06006 -2.29992 c 0.01 -0.64 0.02 -1.28992 0.02 -1.93006 c 0 -1.92993 -0.05005 -3.85 -0.14991 -5.78 q -0.24023 -4.63494 -0.87011 -9.23 a 110.05211 110.05211 0 0 0 -217.78 -2 c -0.09986 0.66 -0.19995 1.33 -0.29 2 q -0.49476 3.6 -0.74 7.23 c -0.04981 0.67005 -0.08985 1.33 -0.11987 2 a 109.92718 109.92718 0 0 0 38.92993 89.79 q 3.62988 3.06006 7.43994 5.76 c 0.01 0.01 0.02 0.01 0.03 0.02 c 0.8501 0.6001 1.7 1.18994 2.56006 1.77 c 1.36987 0.9 2.75 1.78 4.13989 2.62 c 0.11011 0.05993 0.22021 0.13 0.33008 0.19006 c 1.2 0.72 2.41015 1.40991 3.62011 2.07995 h 0.00977 a 108.15267 108.15267 0 0 0 13.99023 6.44007 a 110.38385 110.38385 0 0 0 44.23 6.93994 h 0.02979 a 109.76088 109.76088 0 0 0 49.91016 -14.77 c 2.21 -1.28 4.38989 -2.65 6.52 -4.11 c 0.53 -0.36 1.06982 -0.7301 1.58984 -1.1 c 0.64014 -0.45007 1.28 -0.92 1.92017 -1.39 c 0.01 0 0.01 -0.01 0.02 -0.01 a 1.42983 1.42983 0 0 1 0.14991 -0.11 c 0.42993 -0.33008 0.86987 -0.66 1.29 -0.98 c 0.1101 -0.08008 0.22 -0.16 0.32983 -0.25 a 0.48138 0.48138 0 0 0 0.08008 -0.07007 c 0.25 -0.17993 0.49 -0.38 0.74 -0.57007 c 0.25 -0.18994 0.49 -0.38989 0.74 -0.58984 a 0.9391 0.9391 0 0 0 0.12012 -0.09009 c 0.28 -0.23 0.56005 -0.45 0.83984 -0.67993 c 0.29 -0.23 0.57007 -0.47 0.84009 -0.70007 c 0.28 -0.23 0.55005 -0.46 0.83008 -0.7 c 0.24 -0.20007 0.49 -0.41 0.73 -0.63 c 0.07983 -0.06006 0.1499 -0.13 0.23 -0.2 a 0.71346 0.71346 0 0 1 0.09985 -0.08008 c 0.33008 -0.28 0.65015 -0.57007 0.97021 -0.86 c 0.08008 -0.07 0.14991 -0.14 0.23 -0.21009 c 0.49 -0.43994 0.98 -0.87988 1.46 -1.33984 c 0.10986 -0.1001 0.23 -0.21008 0.33984 -0.31006 c 0.11011 -0.1001 0.21021 -0.2 0.32007 -0.3 c 0.14014 -0.13989 0.29 -0.27 0.42993 -0.40991 c 0.36011 -0.34009 0.71021 -0.69006 1.07007 -1.04 l 1.17993 1 l 0.43018 0.36 h 0.01 l 0.12988 0.12 l 0.47 0.39 l 6.98 5.9 l 0.15015 0.12988 l 0.11987 0.09009 l 0.79 0.66992 l 1.58008 1.34009 l 1.58007 1.33 l 0.23 0.19006 l 7.34986 6.2 l 1.02 0.86 l 7.09009 5.9801 l 36.7 30.97 l 1.28 1.08 l 50.23 42.38 l 12.87988 10.87 l 4.79 4.03991 a 10.13315 10.13315 0 0 0 14.29 -1.19995 a 9.84215 9.84215 0 0 0 1.68994 -2.84 A 10.09075 10.09075 0 0 0 945.22634 577 Z M 655.55642 345.19 a 82.447 82.447 0 0 1 143.95019 37.48 c 0.12989 0.67 0.25 1.33 0.35987 2 c 0.40991 2.39 0.71 4.81 0.89013 7.23 c 0.04981 0.67005 0.09986 1.33 0.12989 2 c 0.08984 1.5 0.12988 3.01 0.12988 4.51 a 82.07827 82.07827 0 0 1 -4.46 26.74 v 0.01 a 82.00716 82.00716 0 0 1 -14.97 26.38013 c -0.1399 0.15991 -0.28 0.33 -0.42993 0.49 c -1.32007 1.55994 -2.71 3.05994 -4.14014 4.49 c -0.00977 0.01 -0.02 0.03 -0.02979 0.04 c -0.49023 0.49 -0.99023 0.99 -1.49023 1.45 c -1.02 0.99 -2.05982 1.92993 -3.11987 2.83 q -2.38514 2.085 -4.8899 3.91 c -0.56006 0.40991 -1.12011 0.81006 -1.69018 1.21 c -0.55982 0.4 -1.12988 0.78 -1.7 1.16 c -1.14014 0.76 -2.3 1.49 -3.47 2.18 c -0.58008 0.34985 -1.17994 0.68994 -1.77 1.02 c -0.59009 0.33984 -1.18994 0.65991 -1.79 0.97 c -0.59986 0.32 -1.19995 0.62988 -1.80982 0.92993 c -1.2102 0.61 -2.43017 1.17993 -3.67016 1.71 q -0.92982 0.42 -1.86011 0.78 c -0.38989 0.16 -0.77 0.32007 -1.15991 0.46 a 3.761 3.761 0 0 1 -0.47 0.18006 q -0.31494 0.13494 -0.62989 0.24 a 1.81589 1.81589 0 0 1 -0.21 0.07995 c -0.43017 0.17005 -0.85009 0.32007 -1.29 0.47009 c -0.63012 0.23 -1.26025 0.44 -1.90014 0.64 c -0.6399 0.21 -1.27 0.40991 -1.90991 0.59 c -0.64014 0.20007 -1.29 0.38 -1.93018 0.54992 c -0.6499 0.18006 -1.2898 0.3501 -1.93994 0.5 c -0.68994 0.18006 -1.37988 0.34009 -2.08008 0.49 c -0.60986 0.14014 -1.21 0.26 -1.81982 0.37012 c -0.57007 0.11987 -1.14991 0.22 -1.72 0.32 c -0.8 0.14 -1.6001 0.27 -2.40992 0.38 c -0.44018 0.07007 -0.87011 0.13 -1.31006 0.16992 c -0.18994 0.03 -0.37011 0.05 -0.55 0.07007 c -0.56006 0.08008 -1.12012 0.14 -1.67017 0.18994 c -0.1499 0.01 -0.2898 0.03 -0.42993 0.04 c -0.60987 0.06006 -1.23 0.11011 -1.84009 0.16 c -1.30981 0.09 -2.60986 0.15 -3.91992 0.18 c -0.65991 0.01 -1.33008 0.02 -1.99 0.02 s -1.32007 -0.01 -1.98 -0.03 c 0 0 0 0.01 -0.01 0 c -0.01 0.01 -0.01 0.01 -0.02 0 a 0.01386 0.01386 0 0 1 -0.02 0 a 0.16975 0.16975 0 0 1 -0.09985 0 c -0.47 0 -0.94019 -0.02 -1.40015 -0.05 c -0.33985 -0.01 -0.68994 -0.02 -1.04 -0.05 q -0.7046 -0.03 -1.40991 -0.09 c -0.1499 0 -0.3 -0.0199 -0.44995 -0.02991 a 1.48637 1.48637 0 0 1 -0.21 -0.02 c -0.48 -0.04 -0.97 -0.08008 -1.4502 -0.13013 c -0.23975 -0.0199 -0.48975 -0.03991 -0.73 -0.06994 c -0.73 -0.08 -1.46 -0.17005 -2.17993 -0.2699 c -0.82007 -0.1001 -1.63989 -0.22009 -2.45 -0.37012 c -0.37989 -0.05 -0.75 -0.12 -1.12012 -0.18994 q -0.73463 -0.12012 -1.46973 -0.27 c -0.51025 -0.1 -1.02 -0.2 -1.53027 -0.32007 c -0.40991 -0.09 -0.82983 -0.17993 -1.23975 -0.27991 c -0.20019 -0.04 -0.40014 -0.09 -0.59008 -0.14 c -1.05005 -0.25 -2.09009 -0.52 -3.12012 -0.82007 c -0.6499 -0.17993 -1.3 -0.36987 -1.93994 -0.56994 c -0.88013 -0.27 -1.75 -0.55994 -2.61988 -0.87 c -0.34008 -0.11 -0.67016 -0.23 -1.01025 -0.36 c -0.33984 -0.11 -0.66992 -0.24 -1.00977 -0.37 c -0.31005 -0.11011 -0.62011 -0.23 -0.92016 -0.3501 c -0.5 -0.18994 -0.99 -0.38989 -1.48 -0.58984 c -1.01 -0.41016 -2 -0.84009 -2.99 -1.3 c -0.56006 -0.27 -1.11988 -0.53 -1.66992 -0.8 q -3.25489 -1.57507 -6.41016 -3.5 c -0.52 -0.31006 -1.0398 -0.64 -1.55981 -0.97 c -0.65015 -0.4 -1.28 -0.82007 -1.90992 -1.24 c -0.35009 -0.24 -0.69018 -0.47 -1.03027 -0.71 c -0.62988 -0.44006 -1.25 -0.89014 -1.85986 -1.34009 c -0.32007 -0.23 -0.64014 -0.47 -0.95 -0.71 c -1.11011 -0.84009 -2.2 -1.72 -3.27 -2.62 c -0.51 -0.43 -1.02 -0.87 -1.52 -1.31994 c -0.21 -0.18006 -0.42017 -0.37012 -0.63013 -0.56006 c -0.23975 -0.22 -0.48 -0.42993 -0.71 -0.66 l -0.02 -0.0199 c -0.34985 -0.31006 -0.7 -0.64014 -1.04 -0.97009 c -0.52979 -0.5 -1.04981 -1.01 -1.54981 -1.52991 c -0.52 -0.51 -1.02 -1.04 -1.51 -1.56006 c -0.5 -0.52 -0.98 -1.05 -1.45 -1.59009 q -0.72 -0.79486 -1.41015 -1.61987 c -0.45 -0.52 -0.88989 -1.06006 -1.31006 -1.59009 q -1.53 -1.89 -2.91992 -3.85 c -0.42993 -0.6 -0.83985 -1.20008 -1.24 -1.80994 c -0.42993 -0.62012 -0.84009 -1.25 -1.23 -1.88013 c -0.40992 -0.62988 -0.8 -1.27 -1.17994 -1.91992 a 0.20915 0.20915 0 0 0 -0.04 -0.06006 c -0.75 -1.27 -1.47 -2.54993 -2.14014 -3.85 q -1.03491 -1.97992 -1.94995 -4 c -0.30982 -0.67005 -0.60987 -1.35 -0.88989 -2.02991 c -0.58008 -1.37012 -1.12012 -2.74 -1.62012 -4.13013 c -0.25 -0.66992 -0.48 -1.34 -0.71 -2.02 a 0.49523 0.49523 0 0 0 -0.04 -0.12988 c -0.46 -1.38013 -0.87988 -2.77 -1.25 -4.17 c -0.01 -0.02 -0.01 -0.03992 -0.02 -0.05994 c -0.18994 -0.69006 -0.36987 -1.38013 -0.52979 -2.08008 c -0.16015 -0.61 -0.3 -1.22 -0.43017 -1.84 c -0.1499 -0.69006 -0.29981 -1.38 -0.42993 -2.07995 c -0.07007 -0.36011 -0.1399 -0.72009 -0.2 -1.08008 c -0.06 -0.3 -0.1101 -0.61 -0.16015 -0.90991 c -0.04981 -0.3 -0.09985 -0.61011 -0.1499 -0.92005 q -0.15015 -0.915 -0.27 -1.82995 c -0.1001 -0.72009 -0.17993 -1.44006 -0.26 -2.17005 c -0.09009 -0.87 -0.16992 -1.74011 -0.24 -2.62 c -0.05 -0.59009 -0.08008 -1.19006 -0.10987 -1.79 c -0.03027 -0.55 -0.06006 -1.1 -0.07006 -1.65 a 0.13853 0.13853 0 0 1 0 -0.09 a 0.01386 0.01386 0 0 1 0 -0.02 c -0.01 -0.01 -0.01 -0.01 0 -0.02 a 0.01386 0.01386 0 0 1 0 -0.02 c -0.01 -0.22 -0.02 -0.43994 -0.02 -0.65991 q -0.03 -0.975 -0.03 -1.95 c 0 -0.59009 0.01 -1.17011 0.02 -1.76007 q 0.03 -1.23 0.08984 -2.46 c 0 -0.18 0.02 -0.35 0.03027 -0.53 c 0.00977 -0.18 0.01978 -0.35 0.02979 -0.53 q 0.03 -0.57 0.09009 -1.14 a 1.47492 1.47492 0 0 1 0.01 -0.21 c 0.03 -0.43 0.06982 -0.86 0.10986 -1.29 c 0.08008 -0.86 0.18017 -1.73 0.29 -2.59 c 0.06006 -0.43 0.11011 -0.86 0.18017 -1.29 c 0.04 -0.3 0.08985 -0.61 0.1399 -0.92 q 0.06006 -0.465 0.15014 -0.93 c 0.06983 -0.41 0.1399 -0.83 0.21973 -1.25 c 0.04 -0.25 0.09009 -0.5 0.14014 -0.75 q 0.28491 -1.5 0.62988 -3 c 0.23 -1.01 0.49023 -2.01 0.77 -3.01 c 0.27 -1.01 0.57007 -2.02 0.89014 -3.03 c 0.1499 -0.51 0.31005 -1.01 0.49 -1.51 c 0.32983 -1.01 0.67993 -2.01 1.07006 -3 c 0.17994 -0.49 0.36988 -0.99 0.57984 -1.48 c 0.40014 -0.99 0.82007 -1.98 1.25 -2.95 c 0.22 -0.49 0.44018 -0.98 0.67993 -1.47 c 0.45019 -0.97 0.92017 -1.94 1.43018 -2.89 c 0.49 -0.97 1.02 -1.92 1.56005 -2.86 s 1.09986 -1.88 1.68995 -2.81 c 0.27 -0.46 0.56982 -0.93 0.87988 -1.38 c 0.6001 -0.92 1.23 -1.84 1.87012 -2.74 C 652.69655 348.72 654.08645 346.93 655.55642 345.19 Z M 636.36648 391.9 c -0.03 0.38 -0.06006 0.76 -0.08008 1.14 q 0.03 -0.57 0.09009 -1.14 a 1.47492 1.47492 0 0 1 0.01 -0.21 C 636.37649 391.76 636.37649 391.83 636.36648 391.9 Z m 1.24 -9.23 c -0.04 0.25 -0.09009 0.5 -0.13013 0.75 c 0.04 -0.25 0.09009 -0.5 0.14014 -0.75 Z m 24.90991 76.15009 V 458.83 c 0 0.01 0.01 0.01 0.02 0.01 Z" stroke-linecap="round"/>
</g>
</svg>